Coordinates
version=1
nRows=13
nColumns=22
inDegrees=yes

Units are S.I. units (second, meters, Newtons, ...)
If the header above contains a line with 'inDegrees', this indicates whether rotational values are in degrees (yes) or radians (no).

endheader
time	pelvis_tilt	pelvis_list	pelvis_rotation	pelvis_tx	pelvis_ty	pelvis_tz	hip_flexion_r	hip_adduction_r	hip_rotation_r	knee_angle_r	ankle_angle_r	subtalar_angle_r	hip_flexion_l	hip_adduction_l	hip_rotation_l	knee_angle_l	ankle_angle_l	subtalar_angle_l	lumbar_extension	lumbar_bending	lumbar_rotation
      2.65000000	     13.38477674	     -6.11139846	     17.58673197	      1.16888337	      0.93563594	      0.11760716	      2.43299396	     11.09685769	    -16.83767303	    -17.52665926	      3.00953067	     -0.26354779	     -2.84872613	    -14.42904313	      6.74378825	    -60.71803321	      3.85749523	      1.25603449	     -9.48083877	      9.19406573	    -14.11686177
      2.66000000	     13.42900016	     -6.30609554	     17.47214009	      1.17466870	      0.93594324	      0.11805694	      1.94769291	     11.51566596	    -16.51543378	    -17.28013876	      3.20146333	     -0.37365536	     -1.69423022	    -14.84912927	      6.41258301	    -61.40382010	      5.09759910	     -0.31781667	     -9.56705369	      9.41612095	    -13.70277814
      2.67000000	     13.47106333	     -6.46723619	     17.32362994	      1.18019650	      0.93626550	      0.11849566	      1.46345286	     11.88592071	    -16.17664493	    -17.03367983	      3.37998819	     -0.53081780	     -0.58744042	    -15.20135108	      6.07657595	    -61.91157735	      6.43636461	     -2.03713958	     -9.68221488	      9.60152184	    -13.26831154
      2.68000000	     13.51015973	     -6.59404362	     17.14724928	      1.18548108	      0.93661228	      0.11891266	      0.97740312	     12.20673986	    -15.83185221	    -16.78098212	      3.53948531	     -0.73331394	      0.46535069	    -15.47762535	      5.75028206	    -62.23912014	      7.83468671	     -3.81977345	     -9.82361318	      9.74777137	    -12.81850816
      2.69000000	     13.55267084	     -6.68248157	     16.94684664	      1.19052785	      0.93698871	      0.11929031	      0.48686299	     12.47289393	    -15.49654661	    -16.53343438	      3.69300110	     -0.96703587	      1.44917402	    -15.66679934	      5.44577419	    -62.38802080	      9.25268448	     -5.56110289	    -10.00009987	      9.85624269	    -12.36160356
      2.70000000	     13.59708797	     -6.73957708	     16.72446542	      1.19536330	      0.93739077	      0.11963072	     -0.00708353	     12.69295792	    -15.16700274	    -16.28633638	      3.84966666	     -1.21345844	      2.35904711	    -15.77744140	      5.16115808	    -62.35799306	     10.65062439	     -7.13491504	    -10.20336636	      9.93037853	    -11.89677005
      2.71000000	     13.63893725	     -6.77155539	     16.47774459	      1.19995074	      0.93780106	      0.11995219	     -0.49518039	     12.87909620	    -14.77600265	    -16.03903119	      3.99610082	     -1.46482662	      3.20485587	    -15.80428119	      4.91777837	    -62.16524466	     11.96850623	     -8.45846491	    -10.43747798	      9.97582452	    -11.42121044
      2.72000000	     13.68153028	     -6.76750670	     16.20825186	      1.20437300	      0.93823200	      0.12018904	     -0.97935895	     13.00148908	    -14.45756185	    -15.81727779	      4.17929549	     -1.70884649	      3.95975363	    -15.74721921	      4.68645483	    -61.80000753	     13.20943786	     -9.47878032	    -10.68944963	      9.98897819	    -10.94373760
      2.73000000	     13.72049760	     -6.74256077	     15.91580784	      1.20857705	      0.93865910	      0.12039183	     -1.44447498	     13.08741612	    -14.10476101	    -15.61936288	      4.36481334	     -1.94256492	      4.64375192	    -15.61771709	      4.49236265	    -61.28670204	     14.32296498	    -10.13800818	    -10.96489100	      9.97785945	    -10.45456934
      2.74000000	     13.73604947	     -6.70868943	     15.58456997	      1.21262066	      0.93905867	      0.12057633	     -1.87442374	     13.14424116	    -13.69540938	    -15.43758315	      4.55582460	     -2.11583229	      5.27019445	    -15.43975366	      4.30322553	    -60.62983548	     15.27413294	    -10.33639118	    -11.22823385	      9.94839751	     -9.94931661
      2.75000000	     13.74448851	     -6.65643802	     15.24285938	      1.21652275	      0.93944043	      0.12070875	     -2.27239277	     13.15727403	    -13.34430389	    -15.30297645	      4.75740362	     -2.29435654	      5.82364737	    -15.21838983	      4.12572183	    -59.83614255	     16.15525194	    -10.34262938	    -11.49122037	      9.89548398	     -9.45695512
      2.76000000	     13.73658928	     -6.59600019	     14.88763199	      1.22026663	      0.93978765	      0.12077056	     -2.62756429	     13.13827107	    -12.97798971	    -15.20687087	      4.95598696	     -2.46667424	      6.31958516	    -14.95975772	      3.97024715	    -58.92256781	     16.94503374	    -10.15981565	    -11.74247638	      9.83436102	     -8.97281063
      2.77000000	     13.71270632	     -6.54067335	     14.50157373	      1.22388553	      0.94008425	      0.12081388	     -2.93053353	     13.09812519	    -12.61946675	    -15.16751000	      5.17701864	     -2.61539738	      6.75465053	    -14.69899912	      3.79757986	    -57.90110859	     17.66065806	     -9.85794363	    -11.97915503	      9.77410700	     -8.47447695
